<?xml version="1.0" standalone="no"?>
<!DOCTYPE svg PUBLIC "-//W3C//DTD SVG 20010904//EN"
 "http://www.w3.org/TR/2001/REC-SVG-20010904/DTD/svg10.dtd">
<svg version="1.0" xmlns="http://www.w3.org/2000/svg"
 width="5120.000000pt" height="5120.000000pt" viewBox="0 0 5120.000000 5120.000000"
 preserveAspectRatio="xMidYMid meet">

<g transform="translate(0.000000,5120.000000) scale(0.100000,-0.100000)"
fill="#000000" stroke="none">
<path d="M25482 44190 c-245 -25 -482 -132 -665 -300 -77 -71 -574 -542 -2457
-2330 -443 -421 -1471 -1397 -2285 -2170 -814 -773 -1885 -1790 -2380 -2260
-495 -470 -1213 -1152 -1595 -1515 -382 -362 -868 -824 -1080 -1025 -613 -583
-2924 -2777 -3880 -3684 -481 -457 -1055 -1002 -1275 -1211 -220 -210 -760
-722 -1200 -1140 -1751 -1663 -1972 -1873 -2012 -1926 -309 -403 -337 -918
-71 -1346 61 -100 210 -257 308 -325 200 -140 425 -211 670 -211 257 0 492 76
690 224 41 31 539 496 1105 1034 567 538 1246 1184 1510 1435 521 494 1365
1296 2765 2625 492 468 1430 1359 2085 1980 654 622 1413 1342 1685 1600 272
259 943 896 1490 1415 547 520 1438 1366 1980 1881 2449 2325 3050 2896 3859
3664 475 451 867 820 871 820 4 0 306 -283 671 -630 639 -606 1979 -1879 4059
-3854 2140 -2032 2601 -2470 3270 -3106 382 -363 1006 -954 1385 -1315 1448
-1375 3131 -2973 3765 -3575 267 -253 537 -509 600 -570 63 -61 466 -444 895
-850 429 -407 1196 -1136 1705 -1619 509 -484 959 -904 1000 -935 296 -221
708 -286 1057 -167 178 61 323 153 463 296 367 374 436 959 164 1401 -98 158
62 2 -1994 1954 -382 363 -1145 1088 -1695 1610 -1051 998 -1666 1582 -3470
3295 -605 574 -1230 1168 -1390 1320 -159 152 -783 744 -1385 1316 -2850 2705
-4307 4089 -5165 4904 -269 256 -805 764 -1190 1130 -385 366 -968 919 -1295
1230 -752 714 -719 683 -817 747 -220 143 -489 209 -751 183z"/>
<path d="M25456 38604 c-105 -25 -190 -79 -316 -199 -63 -60 -754 -724 -1535
-1475 -781 -751 -2356 -2265 -3500 -3365 -1144 -1099 -2197 -2112 -2340 -2250
-143 -138 -665 -640 -1160 -1115 -495 -476 -1024 -984 -1175 -1130 -151 -146
-851 -819 -1555 -1495 -1618 -1554 -1613 -1550 -1648 -1593 -34 -43 -61 -94
-91 -172 l-21 -55 -3 -9118 c-2 -8131 0 -9126 13 -9184 48 -207 223 -382 435
-434 46 -12 797 -14 4560 -14 l4505 0 5 5525 5 5525 22 55 c31 74 74 146 117
197 52 60 170 135 257 164 l74 24 3495 0 3495 0 74 -24 c87 -29 205 -104 257
-164 43 -51 86 -123 117 -197 l22 -55 5 -5525 5 -5525 4505 0 c3763 0 4514 2
4560 14 212 52 387 227 435 434 13 58 15 1047 13 9129 l-3 9063 -23 67 c-43
127 -99 194 -349 417 -206 185 -698 660 -2983 2881 -848 824 -4430 4304 -5940
5769 -586 569 -1144 1111 -1240 1206 -449 440 -2567 2493 -2598 2518 -48 38
-145 84 -217 102 -73 18 -200 18 -279 -1z"/>
</g>
</svg>
